700 0 1 0           
33 Autodesk Inventor 20.0.13800.0000 18 ASM 221.1.0.540 NT 24 Thu Dec 10 11:01:54 2015 
1 9.9999999999999995e-007 1e-010 
body $1 -1 $-1 $2 $-1 $-1 #
DXID-attrib $-1 -1 $-1 $-1 $0 @7 PS-Body @98 sideTool.prt|:|400098320832897989A646CB56B2C30D9E0F7A20|:|468EFE7E05A6AF17CD675B0312EA214711A9AC60 #
lump $-1 -1 $-1 $-1 $3 $0 #
shell $-1 -1 $-1 $-1 $-1 $4 $-1 $2 #
face $5 -1 $-1 $6 $7 $3 $-1 $8 forward single #
DXID-attrib $-1 -1 $-1 $-1 $4 @7 PS-Face @2 82 #
face $9 -1 $-1 $10 $11 $3 $-1 $12 forward single #
loop $13 -1 $-1 $-1 $14 $4 #
plane-surface $-1 -1 $-1 1341.2232616087977 1055.2266947267328 155.09073705378827 -4.7727894043405232e-017 1.3363810332153475e-017 1 10 0 4.772789404340523e-016 forward_v I I I I #
DXID-attrib $-1 -1 $-1 $-1 $6 @7 PS-Face @2 80 #
face $15 -1 $-1 $16 $17 $3 $-1 $18 forward single #
loop $19 -1 $-1 $-1 $20 $6 #
plane-surface $-1 -1 $-1 801.96341056885535 1206.2194530179167 155.09073705378819 -0.96296401971418166 0.26962992551997106 -1.1878942517469706e-015 -1.2335811384723915e-014 0 10 forward_v I I I I #
DXID-attrib $-1 -1 $-1 $-1 $7 @7 PS-Loop @2 81 #
coedge $-1 -1 $-1 $21 $22 $23 $24 reversed $7 $-1 #
DXID-attrib $-1 -1 $-1 $-1 $10 @7 PS-Face @2 78 #
face $25 -1 $-1 $26 $27 $3 $-1 $28 forward single #
loop $29 -1 $-1 $-1 $30 $10 #
plane-surface $-1 -1 $-1 801.96341056885569 1206.2194530179167 65.09073705378799 9.5455788086810463e-017 -2.672762066430695e-017 -1 -10 0 -9.5455788086810461e-016 forward_v I I I I #
DXID-attrib $-1 -1 $-1 $-1 $11 @7 PS-Loop @2 79 #
coedge $-1 -1 $-1 $31 $32 $33 $34 reversed $11 $-1 #
coedge $-1 -1 $-1 $35 $14 $36 $37 reversed $7 $-1 #
coedge $-1 -1 $-1 $14 $35 $31 $38 forward $7 $-1 #
coedge $-1 -1 $-1 $33 $39 $14 $24 forward $40 $-1 #
edge $41 -1 $-1 $42 0 $43 1 $14 $44 forward @7 unknown #
DXID-attrib $-1 -1 $-1 $-1 $16 @7 PS-Face @2 76 #
face $45 -1 $-1 $46 $47 $3 $-1 $48 reversed single #
loop $49 -1 $-1 $-1 $50 $16 #
plane-surface $-1 -1 $-1 1341.2232616087977 1055.2266947267328 65.09073705378816 0.96296401971418166 -0.26962992551997106 2.3757885034939479e-015 2.4671622769447899e-014 0 -10 forward_v I I I I #
DXID-attrib $-1 -1 $-1 $-1 $17 @7 PS-Loop @2 77 #
coedge $-1 -1 $-1 $51 $52 $53 $54 reversed $17 $-1 #
coedge $-1 -1 $-1 $55 $20 $22 $38 reversed $11 $-1 #
coedge $-1 -1 $-1 $20 $55 $51 $56 forward $11 $-1 #
coedge $-1 -1 $-1 $53 $23 $20 $34 forward $40 $-1 #
edge $57 -1 $-1 $43 0 $58 1 $20 $59 forward @7 unknown #
coedge $-1 -1 $-1 $22 $21 $60 $61 forward $7 $-1 #
coedge $-1 -1 $-1 $50 $62 $21 $37 forward $27 $-1 #
edge $63 -1 $-1 $64 0 $42 1.0000000000000002 $21 $65 forward @7 unknown #
edge $66 -1 $-1 $67 0 $43 1 $22 $68 forward @7 unknown #
coedge $-1 -1 $-1 $23 $53 $50 $69 forward $40 $-1 #
loop $70 -1 $-1 $-1 $23 $46 #
DXID-attrib $-1 -1 $-1 $-1 $24 @7 PS-Edge @2 52 #
vertex $-1 -1 $-1 $24 $71 #
vertex $-1 -1 $-1 $24 $72 #
straight-curve $-1 -1 $-1 1335.830663098398 1035.9674143324492 155.09073705378827 -539.25985103994208 150.99275829118383 -3.5527136788005009e-014 F 0 F 1 #
DXID-attrib $-1 -1 $-1 $-1 $26 @7 PS-Face @2 24 #
face $73 -1 $-1 $74 $40 $3 $-1 $75 forward single #
loop $76 -1 $-1 $77 $60 $26 #
plane-surface $-1 -1 $-1 371.49052135906459 1326.7518619966584 4.5161149246003408e-013 -0.26962992551997106 -0.96296401971418166 -3.3261039048915201e-016 0 3.4540271877226985e-015 -10 forward_v I I I I #
DXID-attrib $-1 -1 $-1 $-1 $27 @7 PS-Loop @2 75 #
coedge $-1 -1 $-1 $78 $36 $39 $69 reversed $27 $-1 #
coedge $-1 -1 $-1 $79 $30 $32 $56 reversed $17 $-1 #
coedge $-1 -1 $-1 $30 $79 $78 $80 forward $17 $-1 #
coedge $-1 -1 $-1 $39 $33 $30 $54 forward $40 $-1 #
edge $81 -1 $-1 $58 -6.8422708900625684e-017 $82 0.99999999999999989 $30 $83 forward @7 unknown #
coedge $-1 -1 $-1 $32 $31 $84 $85 forward $11 $-1 #
edge $86 -1 $-1 $87 0 $58 1 $32 $88 forward @7 unknown #
DXID-attrib $-1 -1 $-1 $-1 $34 @7 PS-Edge @2 50 #
vertex $-1 -1 $-1 $34 $89 #
straight-curve $-1 -1 $-1 796.57081205845589 1186.9601726236331 155.09073705378822 0 0 -90.000000000000412 F 0 F 1 #
coedge $-1 -1 $-1 $90 $84 $35 $61 reversed $47 $-1 #
edge $91 -1 $-1 $64 0 $67 1 $35 $92 forward @7 unknown #
coedge $-1 -1 $-1 $36 $78 $90 $93 forward $27 $-1 #
DXID-attrib $-1 -1 $-1 $-1 $37 @7 PS-Edge @2 74 #
vertex $-1 -1 $-1 $37 $94 #
straight-curve $-1 -1 $-1 1341.2232616087977 1055.2266947267328 155.09073705378827 -5.3925985103995799 -19.259280394283707 0 F 0 F 1.0000000000000002 #
DXID-attrib $-1 -1 $-1 $-1 $38 @7 PS-Edge @2 73 #
vertex $-1 -1 $-1 $61 $95 #
straight-curve $-1 -1 $-1 801.96341056885547 1206.2194530179167 155.09073705378822 -5.3925985103994378 -19.259280394283707 0 F 0 F 1 #
edge $96 -1 $-1 $82 0 $42 1 $50 $97 forward @7 unknown #
DXID-attrib $-1 -1 $-1 $-1 $40 @7 PS-Loop @2 45 #
point $-1 -1 $-1 1335.830663098398 1035.9674143324492 155.09073705378827 #
point $-1 -1 $-1 796.570812058456 1186.9601726236331 155.09073705378822 #
DXID-attrib $-1 -1 $-1 $-1 $46 @7 PS-Face @2 42 #
face $98 -1 $-1 $99 $100 $3 $-1 $101 forward single #
plane-surface $-1 -1 $-1 366.09792284866512 1307.4925816023745 4.5161149246003408e-013 -0.26962992551997106 -0.96296401971418166 -3.3261039048915201e-016 0 3.4540271877226985e-015 -10 forward_v I I I I #
DXID-attrib $-1 -1 $-1 $-1 $47 @7 PS-Loop @2 23 #
loop $102 -1 $-1 $-1 $103 $26 #
coedge $-1 -1 $-1 $62 $50 $52 $80 reversed $27 $-1 #
coedge $-1 -1 $-1 $52 $51 $104 $105 forward $17 $-1 #
edge $106 -1 $-1 $107 0 $82 1.0000000000000002 $52 $108 forward @7 unknown #
DXID-attrib $-1 -1 $-1 $-1 $54 @7 PS-Edge @2 48 #
vertex $-1 -1 $-1 $54 $109 #
straight-curve $-1 -1 $-1 796.57081205845589 1186.9601726236331 65.09073705378799 539.25985103994253 -150.99275829118386 5.3290705182007508e-014 F -6.8422708900625684e-017 F 0.99999999999999989 #
coedge $-1 -1 $-1 $60 $104 $55 $85 reversed $47 $-1 #
edge $110 -1 $-1 $67 0 $87 1 $55 $111 forward @7 unknown #
DXID-attrib $-1 -1 $-1 $-1 $56 @7 PS-Edge @2 72 #
vertex $-1 -1 $-1 $85 $112 #
straight-curve $-1 -1 $-1 801.96341056885535 1206.2194530179167 65.090737053787819 -5.3925985103994378 -19.259280394283707 0 F 0 F 1 #
point $-1 -1 $-1 796.57081205845589 1186.9601726236331 65.090737053787819 #
coedge $-1 -1 $-1 $104 $60 $62 $93 reversed $47 $-1 #
DXID-attrib $-1 -1 $-1 $-1 $61 @7 PS-Edge @1 6 #
straight-curve $-1 -1 $-1 1341.2232616087977 1055.2266947267328 155.09073705378827 -539.25985103994219 150.99275829118383 -3.5527136788005009e-014 F 0 F 1 #
edge $113 -1 $-1 $107 0 $64 1 $62 $114 forward @7 unknown #
point $-1 -1 $-1 1341.2232616087977 1055.2266947267328 155.09073705378827 #
point $-1 -1 $-1 801.96341056885547 1206.2194530179167 155.09073705378822 #
DXID-attrib $-1 -1 $-1 $-1 $69 @7 PS-Edge @2 46 #
straight-curve $-1 -1 $-1 1335.8306630983984 1035.9674143324492 65.090737053788047 -2.8421709430404002e-013 0 90.000000000000213 F 0 F 1 #
DXID-attrib $-1 -1 $-1 $-1 $74 @7 PS-Face @3 324 #
face $115 -1 $-1 $116 $117 $3 $-1 $118 forward single #
loop $119 -1 $-1 $120 $121 $74 #
plane-surface $-1 -1 $-1 1150.7489785093319 1227.9824398634573 135.09073705378805 2.6727620664306909e-016 -7.4837337860059411e-017 1 10 0 -2.6727620664306908e-015 forward_v I I I I #
DXID-attrib $-1 -1 $-1 $-1 $77 @7 PS-Loop @3 156 #
coedge $-1 -1 $-1 $122 $123 $124 $125 forward $77 $-1 #
coedge $-1 -1 $-1 $84 $90 $79 $105 reversed $47 $-1 #
edge $126 -1 $-1 $87 -6.8422708900625709e-017 $107 0.99999999999999989 $79 $127 forward @7 unknown #
DXID-attrib $-1 -1 $-1 $-1 $80 @7 PS-Edge @2 71 #
vertex $-1 -1 $-1 $105 $128 #
straight-curve $-1 -1 $-1 1341.2232616087977 1055.2266947267328 65.090737053788047 -5.3925985103992957 -19.259280394283707 0 F 0 F 1.0000000000000002 #
point $-1 -1 $-1 1335.8306630983984 1035.9674143324492 65.090737053788047 #
DXID-attrib $-1 -1 $-1 $-1 $85 @7 PS-Edge @2 11 #
straight-curve $-1 -1 $-1 801.96341056885535 1206.2194530179167 155.09073705378822 0 0 -90.000000000000412 F 0 F 1 #
point $-1 -1 $-1 801.96341056885535 1206.2194530179167 65.090737053787819 #
DXID-attrib $-1 -1 $-1 $-1 $93 @7 PS-Edge @2 20 #
straight-curve $-1 -1 $-1 1341.2232616087977 1055.2266947267328 65.090737053788047 0 0 90.000000000000213 F 0 F 1 #
DXID-attrib $-1 -1 $-1 $-1 $99 @7 PS-Face @3 329 #
face $129 -1 $-1 $130 $131 $3 $-1 $132 forward single #
loop $133 -1 $-1 $-1 $124 $99 #
plane-surface $-1 -1 $-1 1150.7489785093319 1227.9824398634573 85.09073705378799 0.96296401971418166 -0.26962992551997111 0 0 0 -10 forward_v I I I I #
DXID-attrib $-1 -1 $-1 $-1 $100 @7 PS-Loop @3 308 #
loop $134 -1 $-1 $-1 $135 $74 #
coedge $-1 -1 $-1 $136 $137 $122 $138 reversed $100 $-1 #
coedge $-1 -1 $-1 $139 $103 $121 $138 forward $77 $-1 #
coedge $-1 -1 $-1 $103 $139 $140 $141 forward $77 $-1 #
coedge $-1 -1 $-1 $142 $143 $103 $125 reversed $117 $-1 #
edge $144 -1 $-1 $145 0 $146 1 $103 $147 forward @7 unknown #
DXID-attrib $-1 -1 $-1 $-1 $105 @7 PS-Edge @2 16 #
straight-curve $-1 -1 $-1 801.96341056885535 1206.2194530179167 65.09073705378799 539.2598510399423 -150.99275829118383 5.3290705182007514e-014 F -6.8422708900625709e-017 F 0.99999999999999989 #
point $-1 -1 $-1 1341.2232616087977 1055.2266947267328 65.090737053788047 #
DXID-attrib $-1 -1 $-1 $-1 $116 @7 PS-Face @3 334 #
face $148 -1 $-1 $149 $150 $3 $-1 $151 forward single #
loop $152 -1 $-1 $-1 $153 $116 #
plane-surface $-1 -1 $-1 1054.4525765379135 1254.9454324154542 135.09073705378808 -0.96296401971418166 0.26962992551997111 0 0 0 10 forward_v I I I I #
DXID-attrib $-1 -1 $-1 $-1 $117 @7 PS-Loop @3 313 #
DXID-attrib $-1 -1 $-1 $-1 $120 @7 PS-Loop @3 307 #
coedge $-1 -1 $-1 $135 $135 $154 $155 forward $120 $-1 #
coedge $-1 -1 $-1 $156 $121 $143 $157 reversed $100 $-1 #
coedge $-1 -1 $-1 $121 $156 $158 $159 forward $100 $-1 #
edge $160 -1 $-1 $146 0 $161 1 $122 $162 forward @7 unknown #
coedge $-1 -1 $-1 $123 $122 $153 $163 forward $77 $-1 #
coedge $-1 -1 $-1 $164 $165 $123 $141 reversed $150 $-1 #
edge $166 -1 $-1 $167 0 $145 1 $123 $168 forward @7 unknown #
coedge $-1 -1 $-1 $169 $124 $165 $170 reversed $117 $-1 #
coedge $-1 -1 $-1 $124 $169 $136 $157 forward $117 $-1 #
DXID-attrib $-1 -1 $-1 $-1 $125 @7 PS-Edge @3 167 #
vertex $-1 -1 $-1 $125 $171 #
vertex $-1 -1 $-1 $125 $172 #
straight-curve $-1 -1 $-1 1119.741537074535 1117.2415775963261 85.09073705378799 0 0 50.000000000000057 F 0 F 1 #
DXID-attrib $-1 -1 $-1 $-1 $130 @7 PS-Face @3 339 #
face $173 -1 $-1 $174 $175 $3 $-1 $176 reversed single #
loop $177 -1 $-1 $-1 $140 $130 #
plane-surface $-1 -1 $-1 1054.4525765379135 1254.9454324154542 85.090737053788033 -2.6727620664306909e-016 7.4837337860059411e-017 -1 -10 0 2.6727620664306908e-015 forward_v I I I I #
DXID-attrib $-1 -1 $-1 $-1 $131 @7 PS-Loop @3 318 #
coedge $-1 -1 $-1 $158 $178 $139 $163 reversed $131 $-1 #
coedge $-1 -1 $-1 $154 $154 $135 $155 reversed $179 $-1 #
edge $180 -1 $-1 $181 2.9487523534044271e-015 $181 6.2831853071795889 $135 $182 forward @7 unknown #
coedge $-1 -1 $-1 $137 $136 $183 $184 forward $100 $-1 #
edge $185 -1 $-1 $186 0 $146 1 $136 $187 forward @7 unknown #
coedge $-1 -1 $-1 $188 $153 $137 $159 reversed $131 $-1 #
edge $189 -1 $-1 $190 0 $161 1 $137 $191 forward @7 unknown #
DXID-attrib $-1 -1 $-1 $-1 $138 @7 PS-Edge @3 170 #
vertex $-1 -1 $-1 $138 $192 #
straight-curve $-1 -1 $-1 1119.741537074535 1117.2415775963261 135.09073705378805 -96.296401971418248 26.962992551997331 1.7763568394002505e-014 F 0 F 1 #
edge $193 -1 $-1 $161 0 $167 1 $139 $194 forward @7 unknown #
coedge $-1 -1 $-1 $195 $140 $178 $196 reversed $150 $-1 #
coedge $-1 -1 $-1 $140 $195 $142 $170 forward $150 $-1 #
DXID-attrib $-1 -1 $-1 $-1 $141 @7 PS-Edge @3 159 #
vertex $-1 -1 $-1 $163 $197 #
straight-curve $-1 -1 $-1 1023.4451351031169 1144.2045701483235 85.090737053788033 96.296401971418248 -26.962992551997331 -3.5527136788005009e-014 F 0 F 1 #
coedge $-1 -1 $-1 $143 $142 $198 $199 forward $117 $-1 #
edge $200 -1 $-1 $201 0 $145 1 $142 $202 forward @7 unknown #
point $-1 -1 $-1 1119.741537074535 1117.2415775963261 85.09073705378799 #
point $-1 -1 $-1 1119.741537074535 1117.2415775963261 135.09073705378805 #
DXID-attrib $-1 -1 $-1 $-1 $149 @7 PS-Face @3 344 #
face $203 -1 $-1 $204 $205 $3 $-1 $206 forward single #
loop $207 -1 $-1 $-1 $198 $149 #
plane-surface $-1 -1 $-1 402.49796279385868 1437.4927242637887 0 -0.26962992551996939 -0.96296401971418211 0 0 0 -10 forward_v I I I I #
DXID-attrib $-1 -1 $-1 $-1 $150 @7 PS-Loop @3 323 #
coedge $-1 -1 $-1 $153 $188 $164 $196 forward $131 $-1 #
loop $208 -1 $-1 $-1 $154 $174 #
DXID-attrib $-1 -1 $-1 $-1 $155 @7 PS-Edge @3 227 #
vertex $-1 -1 $-1 $155 $209 #
ellipse-curve $-1 -1 $-1 1090.4674308752278 1198.1305552523208 135.09073705378805 0 0 -1 -24.074100492854512 6.7407481379992724 0 1 I I #
coedge $-1 -1 $-1 $198 $210 $156 $184 reversed $175 $-1 #
edge $211 -1 $-1 $186 0 $190 1 $156 $212 forward @7 unknown #
DXID-attrib $-1 -1 $-1 $-1 $157 @7 PS-Edge @3 237 #
vertex $-1 -1 $-1 $157 $213 #
straight-curve $-1 -1 $-1 1150.7489785093319 1227.9824398634573 135.09073705378805 -31.007441434796732 -110.74086226713121 0 F 0 F 1 #
coedge $-1 -1 $-1 $178 $158 $210 $214 forward $131 $-1 #
DXID-attrib $-1 -1 $-1 $-1 $159 @7 PS-Edge @3 233 #
vertex $-1 -1 $-1 $184 $215 #
straight-curve $-1 -1 $-1 1054.4525765379135 1254.9454324154542 135.09073705378808 -31.007441434796736 -110.74086226713078 0 F 0 F 1 #
point $-1 -1 $-1 1023.4451351031169 1144.2045701483235 135.09073705378808 #
DXID-attrib $-1 -1 $-1 $-1 $163 @7 PS-Edge @3 163 #
straight-curve $-1 -1 $-1 1023.4451351031169 1144.2045701483235 135.09073705378808 0 0 -50.000000000000036 F 0 F 1 #
coedge $-1 -1 $-1 $165 $164 $216 $217 forward $150 $-1 #
edge $218 -1 $-1 $219 0 $167 1 $178 $220 forward @7 unknown #
point $-1 -1 $-1 1023.4451351031169 1144.2045701483235 85.090737053788033 #
coedge $-1 -1 $-1 $216 $183 $169 $199 reversed $175 $-1 #
edge $221 -1 $-1 $201 0 $186 1 $169 $222 forward @7 unknown #
DXID-attrib $-1 -1 $-1 $-1 $170 @7 PS-Edge @3 245 #
vertex $-1 -1 $-1 $170 $223 #
straight-curve $-1 -1 $-1 1150.7489785093319 1227.9824398634573 85.09073705378799 -31.007441434796732 -110.74086226713121 0 F 0 F 1 #
DXID-attrib $-1 -1 $-1 $-1 $174 @7 PS-Face @3 351 #
face $224 -1 $-1 $225 $226 $3 $-1 $227 forward single #
loop $228 -1 $-1 $179 $229 $174 #
cone-surface $-1 -1 $-1 1090.4674308752278 1198.1305552523208 315.09073705378802 -0 -0 -1 -24.999999999999968 0 0 1 I I 0 1 24.999999999999968 forward I I I I #
DXID-attrib $-1 -1 $-1 $-1 $175 @7 PS-Loop @3 348 #
DXID-attrib $-1 -1 $-1 $-1 $179 @7 PS-Loop @3 356 #
point $-1 -1 $-1 1066.3933303823733 1204.87130339032 135.09073705378805 #
coedge $-1 -1 $-1 $183 $216 $188 $214 reversed $175 $-1 #
DXID-attrib $-1 -1 $-1 $-1 $184 @7 PS-Edge @3 231 #
straight-curve $-1 -1 $-1 1150.7489785093319 1227.9824398634573 135.09073705378805 -96.296401971418248 26.962992551996905 1.7763568394002505e-014 F 0 F 1 #
point $-1 -1 $-1 1150.7489785093319 1227.9824398634573 135.09073705378805 #
edge $230 -1 $-1 $190 0 $219 1 $188 $231 forward @7 unknown #
point $-1 -1 $-1 1054.4525765379135 1254.9454324154542 135.09073705378808 #
coedge $-1 -1 $-1 $210 $198 $195 $217 reversed $175 $-1 #
edge $232 -1 $-1 $219 0 $201 1 $195 $233 forward @7 unknown #
DXID-attrib $-1 -1 $-1 $-1 $196 @7 PS-Edge @3 241 #
vertex $-1 -1 $-1 $214 $234 #
straight-curve $-1 -1 $-1 1054.4525765379135 1254.9454324154542 85.090737053788033 -31.007441434796736 -110.74086226713078 0 F 0 F 1 #
DXID-attrib $-1 -1 $-1 $-1 $199 @7 PS-Edge @3 235 #
straight-curve $-1 -1 $-1 1150.7489785093319 1227.9824398634573 85.09073705378799 0 0 50.000000000000057 F 0 F 1 #
point $-1 -1 $-1 1150.7489785093319 1227.9824398634573 85.09073705378799 #
DXID-attrib $-1 -1 $-1 $-1 $204 @7 PS-Face @3 357 #
face $235 -1 $-1 $236 $237 $3 $-1 $238 forward single #
loop $239 -1 $-1 $240 $241 $204 #
plane-surface $-1 -1 $-1 1090.4674308752299 1198.1305552523224 315.09073705378802 0 0 -1 -10 0 0 forward_v I I I I #
DXID-attrib $-1 -1 $-1 $-1 $205 @7 PS-Loop @3 355 #
coedge $-1 -1 $-1 $229 $229 $242 $243 forward $205 $-1 #
DXID-attrib $-1 -1 $-1 $-1 $214 @7 PS-Edge @3 239 #
straight-curve $-1 -1 $-1 1054.4525765379135 1254.9454324154542 135.09073705378808 0 0 -50.000000000000036 F 0 F 1 #
DXID-attrib $-1 -1 $-1 $-1 $217 @7 PS-Edge @3 243 #
straight-curve $-1 -1 $-1 1054.4525765379135 1254.9454324154542 85.090737053788033 96.296401971418248 -26.962992551996905 -3.5527136788005009e-014 F 0 F 1 #
point $-1 -1 $-1 1054.4525765379135 1254.9454324154542 85.090737053788033 #
DXID-attrib $-1 -1 $-1 $-1 $225 @7 PS-Face @3 363 #
face $244 -1 $-1 $-1 $245 $3 $-1 $246 reversed single #
loop $247 -1 $-1 $248 $249 $225 #
cone-surface $-1 -1 $-1 1090.4674308752299 1198.1305552523224 335.09073705378802 -0 -0 -1 -70.000000000000057 0 0 1 I I 0 1 70.000000000000057 forward I I I I #
DXID-attrib $-1 -1 $-1 $-1 $226 @7 PS-Loop @3 361 #
loop $250 -1 $-1 $-1 $242 $204 #
coedge $-1 -1 $-1 $241 $241 $251 $252 forward $226 $-1 #
coedge $-1 -1 $-1 $242 $242 $229 $243 reversed $240 $-1 #
edge $253 -1 $-1 $254 2.9487523534044271e-015 $254 6.2831853071795889 $229 $255 forward @7 unknown #
DXID-attrib $-1 -1 $-1 $-1 $236 @7 PS-Face @3 369 #
loop $256 -1 $-1 $-1 $257 $236 #
plane-surface $-1 -1 $-1 1090.4674308752299 1198.1305552523224 335.09073705378802 0 0 -1 -10 0 0 forward_v I I I I #
DXID-attrib $-1 -1 $-1 $-1 $237 @7 PS-Loop @3 367 #
loop $258 -1 $-1 $-1 $251 $225 #
coedge $-1 -1 $-1 $249 $249 $257 $259 forward $237 $-1 #
DXID-attrib $-1 -1 $-1 $-1 $240 @7 PS-Loop @3 362 #
coedge $-1 -1 $-1 $251 $251 $241 $252 reversed $248 $-1 #
edge $260 -1 $-1 $261 -5.4378270593885141e-016 $261 6.2831853071795853 $241 $262 forward @7 unknown #
DXID-attrib $-1 -1 $-1 $-1 $243 @7 PS-Edge @3 283 #
vertex $-1 -1 $-1 $243 $263 #
ellipse-curve $-1 -1 $-1 1090.4674308752278 1198.1305552523208 315.09073705378802 0 0 -1 -24.074100492854512 6.7407481379992724 0 1 I I #
DXID-attrib $-1 -1 $-1 $-1 $245 @7 PS-Loop @3 373 #
coedge $-1 -1 $-1 $257 $257 $249 $259 reversed $245 $-1 #
DXID-attrib $-1 -1 $-1 $-1 $248 @7 PS-Loop @3 368 #
edge $264 -1 $-1 $265 -5.4378270593885141e-016 $265 6.2831853071795853 $249 $266 forward @7 unknown #
DXID-attrib $-1 -1 $-1 $-1 $252 @7 PS-Edge @3 287 #
vertex $-1 -1 $-1 $252 $267 #
ellipse-curve $-1 -1 $-1 1090.4674308752299 1198.1305552523224 315.09073705378802 0 0 -1 -67.407481379992774 18.874094786398004 0 1 I I #
point $-1 -1 $-1 1066.3933303823733 1204.87130339032 315.09073705378802 #
DXID-attrib $-1 -1 $-1 $-1 $259 @7 PS-Edge @3 289 #
vertex $-1 -1 $-1 $259 $268 #
ellipse-curve $-1 -1 $-1 1090.4674308752299 1198.1305552523224 335.09073705378802 0 0 -1 -67.407481379992774 18.874094786398004 0 1 I I #
point $-1 -1 $-1 1023.0599494952371 1217.0046500387205 315.09073705378802 #
point $-1 -1 $-1 1023.0599494952371 1217.0046500387205 335.09073705378802 #
End-of-ACIS-data 